<?xml version="1.0" encoding="utf-8"?>
<!-- Generator: Adobe Illustrator 21.1.0, SVG Export Plug-In . SVG Version: 6.00 Build 0)  -->
<svg version="1.1" id="Layer_1" xmlns="http://www.w3.org/2000/svg" xmlns:xlink="http://www.w3.org/1999/xlink" x="0px" y="0px"
	 viewBox="0 0 631 649.3" style="enable-background:new 0 0 631 649.3;" xml:space="preserve">
<style type="text/css">
	.st0{fill:none;stroke:#000000;stroke-width:2;stroke-miterlimit:10;}
	.st1{fill:none;stroke:#FF4000;stroke-width:3;stroke-miterlimit:10;}
	.st2{fill:none;stroke:#F6FF11;stroke-width:3;stroke-miterlimit:10;}
	.st3{fill:none;stroke:#F0FF0B;stroke-width:3;stroke-miterlimit:10;}
	.st4{fill:none;stroke:#F0FF0B;stroke-width:2;stroke-miterlimit:10;}
	.st5{fill:none;stroke:#000000;stroke-miterlimit:10;}
	.st6{fill:none;stroke:#F6FF05;stroke-width:2;stroke-miterlimit:10;}
	.st7{fill:none;stroke:#EFFF00;stroke-width:2;stroke-miterlimit:10;}
	.st8{fill:none;stroke:#FF00C7;stroke-width:3;stroke-miterlimit:10;}
	.st9{fill:#FFFFFF;stroke:#000000;stroke-miterlimit:10;}
	.st10{fill:none;stroke:#FF00C7;stroke-width:6;stroke-miterlimit:10;}
	.st11{stroke:#F0FF0B;stroke-miterlimit:10;}
	.st12{fill:none;stroke:#000000;stroke-width:3;stroke-miterlimit:10;}
	.st13{fill:none;}
</style>
<g id="Layer_2">
	<path class="st0" d="M172.7,483.7c0-19.2,0-38.4,0-57.6c-2.4,12-4.8,24-7.2,36C167.9,469.3,170.3,476.5,172.7,483.7z"/>
	<path class="st1" d="M143.9,476.5c14.4,28.8,28.8,57.6,43.2,86.4c24,16.8,48,33.6,72,50.4c26.4-12,52.8-24,79.2-36
		c12-14.4,24-28.8,36-43.2c-9.6-2.4-19.2-4.8-28.8-7.2c0-16.8,0-33.6,0-50.4c-57.6-24-115.2-48-172.8-72c0,7.2,0,14.4,0,21.6
		c-2.4,12-4.8,24-7.2,36C158.3,466.9,151.1,471.7,143.9,476.5z"/>
	<path class="st0" d="M201.5,433.3c14.4,38.4,28.8,76.8,43.2,115.2c-4.8-28.8-9.6-57.6-14.4-86.4
		C220.7,452.5,211.1,442.9,201.5,433.3z"/>
	<path class="st0" d="M266.3,526.9c2.4,12,4.8,24,7.2,36c7.2-12,14.4-24,21.6-36c-4.8,2.4-9.6,4.8-14.4,7.2
		C275.9,531.7,271.1,529.3,266.3,526.9z"/>
	<path class="st0" d="M316.7,498.1c7.2-4.8,14.4-9.6,21.6-14.4c-12,21.6-24,43.2-36,64.8C307.1,531.7,311.9,514.9,316.7,498.1z"/>
</g>
<g id="Layer_3">
	<path class="st2" d="M151.1,325.3c4.8,21.6,9.6,43.2,14.4,64.8c2.4,7.5,4.8,14.9,7.2,22.4c19.2,21.3,38.4,42.7,57.6,64
		c9.6,7.2,19.2,14.4,28.8,21.6c16.8,2.4,33.6,4.8,50.4,7.2c12-4.8,24-9.6,36-14.4c4.8-7.3,9.6-14.6,14.5-21.9
		c7.2-19.1,14.4-38.2,21.5-57.3c12-33.6,24-67.2,36-100.8c-2.4-12-4.8-24-7.2-36c4.8-7.2,9.6-14.4,14.4-21.6c0-12,0-24,0-36
		c-4.8-19.2-9.6-38.4-14.4-57.6c-45.6-4.8-91.2-9.6-136.8-14.4c-50.4,4.8-100.8,9.6-151.2,14.4c0,21.6,0,43.2,0,64.8
		c2.4,7.2,4.8,14.4,7.2,21.6c-2.4-4.8-4.8-9.6-7.2-14.4c-7.2,2.4-14.4,4.8-21.6,7.2c-2.4,9.6-4.8,19.2-7.2,28.8
		c9.6,21.6,19.2,43.2,28.8,64.8c4.8,4.8,9.6,9.6,14.4,14.4c4.8-2.4,9.6-4.8,14.4-7.2C151.1,334.9,151.1,330.1,151.1,325.3z"/>
</g>
<g id="Layer_5">
	<path d="M280.7,397.3c7.2-2.4,14.4-4.7,21.5-7.1c4.8,2.4,9.6,4.7,14.5,7.1c-4.8-0.8-9.5-1.6-14.3-2.4
		C295.2,395.7,288,396.5,280.7,397.3z"/>
	<path class="st3" d="M266.3,426.1c11.1-4.8,22.2-9.5,33.3-14.3c5.8,2.3,11.6,4.5,17.4,6.8c3.5-1.8,7-3.7,10.5-5.5
		c8.4,4.3,16.8,8.6,25.3,13c-12,1.1-24.1,2.2-36.1,3.3C299.9,428.3,283.1,427.2,266.3,426.1z"/>
	<path class="st4" d="M266.3,426.1c4.8,2.4,9.6,4.8,14.4,7.2c9.6,2.4,19.2,4.8,28.8,7.2c4.8,0,9.6,0,14.4,0
		c6.2-2.4,12.4-4.7,18.6-7.1c3.4-2.4,6.8-4.9,10.2-7.3"/>
	<path class="st4" d="M410.3,310.9c-4.8,2.4-9.6,4.8-14.4,7.2c-12-4.8-24-9.6-36-14.4c9.6,0,19.2,0,28.8,0c6-2.4,12-4.8,18-7.2
		C407.9,301.3,409.1,306.1,410.3,310.9z"/>
	<g id="Left_Eye_1_">
		<path id="Left_Eye_Shadow" class="st5" d="M158.3,274.9c14.4,9.6,28.8,19.2,43.2,28.8c2.4,7.2,4.8,14.4,7.2,21.6
			C191.9,308.5,175.1,291.7,158.3,274.9z"/>
		<path id="Left_Eye_Shadow_P" class="st5" d="M259.1,296.5c7.2-2.4,14.4-4.8,21.6-7.2c2.4-4.8,4.8-9.6,7.2-14.4
			c-2.4-4.8-4.8-9.6-7.2-14.4c-4.8-2.4-9.6-4.8-14.4-7.2c-7.1-1.2-14.2-2.4-21.4-3.6c-7.3,1.2-14.5,2.4-21.8,3.7
			c-4.8,2.4-9.7,4.7-14.5,7.1c4.8,2.4,9.6,4.8,14.4,7.2c0,2.4,0,4.8,0,7.2c-4.8,2.4-9.6,4.8-14.4,7.2c2.4,2.4,4.8,4.8,7.2,7.2
			c7.3,2.4,14.5,4.7,21.8,7.1C244.9,296.4,252,296.4,259.1,296.5z"/>
		<path id="Left_Eye" d="M280.7,274.9c-2.3-3.6-4.6-7.1-7-10.7c-3.9-1.2-7.7-2.4-11.6-3.6c-8.2,0-16.4-0.1-24.6-0.1
			c-4.8,2.4-9.6,4.8-14.4,7.2c-2.5,2.4-4.9,4.8-7.4,7.2c2.5,2.5,5,5.1,7.4,7.6c4.8,2.3,9.6,4.6,14.3,6.8c8.5-0.1,17.1-0.2,25.6-0.2
			c3.5-2.3,6.9-4.6,10.4-7C275.9,279.7,278.3,277.3,280.7,274.9z"/>
	</g>
	<path id="Right_Eye_Shadow" class="st5" d="M360,253c-6.2,2.5-12.4,5-18.6,7.4c-3.4,4.8-6.8,9.6-10.2,14.4
		c4.8,4.8,9.6,9.6,14.4,14.4c4.8,2.4,9.6,4.8,14.4,7.2c9.6,0,19.2,0,28.8,0c4.8-2.4,9.6-4.8,14.4-7.2c-4.8-4.8-9.6-9.6-14.4-14.4
		c2.4,0,4.8,0,7.2,0c4.8-4.8,9.6-9.6,14.4-14.4c-7.2-2.4-14.4-4.8-21.6-7.2C379.2,253.2,369.6,253.1,360,253z"/>
	<path id="Right_Eye" d="M359.8,289.4c-4.7-2.4-9.5-4.9-14.2-7.3c-2.4-2.5-4.8-4.9-7.2-7.4c1.4-2.3,2.7-4.5,4.1-6.8
		c4.8-2.4,9.6-4.8,14.4-7.2c8.2-0.1,16.5-0.2,24.7-0.3c3,1.4,6.1,2.8,9.1,4.2c3.1,3.3,6.3,6.6,9.4,9.9c-1.4,2.5-2.7,5-4.1,7.5
		c-4.8,2.4-9.6,4.8-14.4,7.2C374.3,289.3,367,289.3,359.8,289.4z"/>
	<path id="Left_Nose_Shadow" class="st5" d="M302.3,282.1c-2.4,16.8-4.8,33.6-7.2,50.4c-2.4,9.6-4.8,19.2-7.2,28.8
		c-9.6,4.8-19.2,9.6-28.8,14.4c7.2-7.2,14.4-14.4,21.6-21.6c2.4-7.2,4.9-14.4,7.3-21.6C292.8,315.7,297.5,298.9,302.3,282.1z"/>
	<path class="st4" d="M331.1,289.3c3.5,4.7,6.9,9.5,10.4,14.2c6.1,4.9,12.3,9.7,18.4,14.6c11.9,3.9,23.8,7.7,35.6,11.6
		c-6.9,4.5-13.8,8.9-20.8,13.4c-4,13.6-7.9,27.1-11.9,40.7c-3.4-7.5-6.8-15-10.2-22.5c-4.8-2.4-9.6-4.8-14.4-7.2
		c-2.4-16.8-4.8-33.6-7.2-50.4C331.1,298.9,331.1,294.1,331.1,289.3z"/>
	<path d="M316.7,397.3c4.8-2.1,9.6-4.1,14.4-6.2c4.8,2.1,9.6,4.1,14.4,6.2c-4.8-0.7-9.6-1.4-14.3-2.1
		C326.4,395.9,321.5,396.6,316.7,397.3z"/>
	<path class="st3" d="M280.7,397.3c7.2-2.4,14.4-4.7,21.5-7.1c4.8,2.4,9.6,4.7,14.5,7.1c4.8-2.4,9.6-4.8,14.4-7.2
		c4.8,2.4,9.6,4.8,14.4,7.2c2.4-2.4,4.8-4.8,7.2-7.2c-2.4-7.8-4.8-15.7-7.1-23.5c-4.8-1.8-9.6-3.5-14.5-5.3
		c-2.4-26.4-4.8-52.8-7.2-79.2c0-9.7,0-19.4,0.1-29.1c-7.2,0.1-14.4,0.2-21.7,0.3c0,9.6,0,19.2,0,28.8c-2.4,16.8-4.8,33.6-7.2,50.4
		c-2.4,9.5-4.8,19-7.1,28.5c-4.8,2.5-9.6,5-14.5,7.5c-2.4,7.2-4.8,14.4-7.2,21.6C271.1,392.5,275.9,394.9,280.7,397.3z"/>
	<path class="st5" d="M352.7,440.5c-4.8,7.2-9.6,14.4-14.4,21.6c-2.4,2.4-4.8,4.8-7.2,7.2c-2.4-2.4-4.8-4.8-7.2-7.2
		c-7.2,0-14.4,0-21.6,0c-4.8,2.4-9.6,4.8-14.4,7.2c-9.6-9.6-19.2-19.2-28.8-28.8c9.6,4.8,19.2,9.6,28.8,14.4
		c4.8-2.4,9.6-4.8,14.4-7.2c7.2,0,14.4,0,21.6,0c2.4,2.4,4.8,4.8,7.2,7.2C338.3,450.1,345.5,445.3,352.7,440.5z"/>
	<path class="st5" d="M179.9,325.3c7.2,4.8,14.4,9.6,21.6,14.4c7.2,16.8,14.4,33.6,21.6,50.4c-2.4,4.7-4.8,9.5-7.1,14.2
		c0-4.7,0-9.5-0.1-14.2c-4.8-14.4-9.6-28.8-14.4-43.2C194.3,339.7,187.1,332.5,179.9,325.3z"/>
	<path class="st4" d="M280.7,303.7c-9.6,4.8-19.2,9.6-28.8,14.4c-7.2,0-14.4,0-21.6,0c4.8,9.6,9.6,19.2,14.4,28.8
		C256.7,332.5,268.7,318.1,280.7,303.7z"/>
	<path d="M187.1,246.1c14.4-6.4,28.7-12.8,43.1-19.3c14.4-0.8,28.9-1.6,43.3-2.3c4.8,2.4,9.6,4.8,14.4,7.2
		c-3.4,3.8-6.9,7.6-10.3,11.4c-6.2-1.4-12.3-2.8-18.5-4.2c-9.6,0-19.2,0-28.8,0C215.9,241.3,201.5,243.7,187.1,246.1z"/>
	<path d="M345.4,243.8c-2.4-4-4.7-8.1-7.1-12.1c4.6-2.3,9.3-4.7,13.9-7c12.3,1.1,24.6,2.3,36.8,3.4c11.9,6,23.8,12,35.7,18
		c0,2.4,0,4.8,0,7.2c-12-4.8-24-9.6-36-14.4c-9.6,0-19.2,0-28.8,0C355.1,240.5,350.3,242.1,345.4,243.8z"/>
	<path class="st4" d="M316.4,375c2.5-4.7,5-9.3,7.6-14c-3.4-28.8-6.7-57.5-10.1-86.3C314.8,308.2,315.6,341.6,316.4,375z"/>
	<path class="st4" d="M324,233c2.4-5.2,4.8-10.5,7.2-15.7c11.9-2.3,23.9-4.7,35.8-7"/>
	<path class="st6" d="M151.1,217.3c4.8,7.2,9.6,14.4,14.4,21.6c2.4-4.8,4.8-9.6,7.2-14.4c12-7.2,24-14.4,36-21.6
		C189.5,207.7,170.3,212.5,151.1,217.3z"/>
	<path class="st7" d="M299.4,227.8c-1.5-3.5-3-7-4.5-10.4c-5.9-1.3-11.7-2.5-17.6-3.8"/>
</g>
<g id="Layer_7">
	<path class="st8" d="M171,145c6-6,12-12,18-18c9-6,18-12,27-18c24.2-6.9,48.4-13.8,72.6-20.7c23.8,0.9,47.6,1.8,71.4,2.7
		c21,9,42,18,63,27c1.2,1.4,2.3,2.8,3.5,4.1c4.5,5.3,9.1,10.7,13.6,16c1.9,9.7,3.8,19.4,5.7,29.1c-5.8,5.6-11.6,11.2-17.4,16.8
		c-3.5,2.1-7,4.3-10.4,6.4c-8.5-6.8-17-13.5-25.5-20.3c-17.9-4.9-35.9-9.9-53.8-14.8c-16.9-2.1-33.8-4.2-50.7-6.2
		c-22.9,3.2-45.8,6.5-68.7,9.7c-9.5,2.8-19,5.6-28.5,8.4c-15.6,7.1-31.3,14.2-46.9,21.3C152.9,174,162,159.5,171,145z"/>
	<path class="st8" d="M144.5,181.1c-0.2-24-0.3-48.1-0.5-72.1c18-18,36-36,54-54c6,15.9,11.9,31.7,17.9,47.6
		c-9.4,5.6-18.9,11.1-28.3,16.7c-7.2,6.7-14.4,13.3-21.5,20C158.8,153.2,151.7,167.2,144.5,181.1z"/>
	<path class="st8" d="M198,55c12-6,24-12,36-18c18.2-2.5,36.3-4.9,54.5-7.4c19.1,2.6,38.3,5.1,57.4,7.7
		c14.4,7.1,28.8,14.2,43.3,21.3c4.6,14.4,9.3,28.8,13.9,43.2C389,95.9,374.9,90,360.8,84c-24.2-0.7-48.4-1.4-72.6-2.1
		c-24.1,6.9-48.3,13.7-72.4,20.6C209.9,86.7,204,70.9,198,55z"/>
	<path class="st8" d="M144,109c-4.9,9.5-9.8,19.1-14.7,28.6c-2.3,7.4-4.7,14.7-7,22.1c0,21.6,0,43.2,0,64.8c7.2-12,14.4-24,21.6-36
		C143.9,162,144,135.5,144,109z"/>
</g>
<path d="M560,255.2"/>
<path class="st5" d="M529.2,393.1"/>
<path class="st5" d="M418.8,440"/>
<path class="st0" d="M438.6,452.6"/>
<path class="st9" d="M476.4,274"/>
<path class="st10" d="M198,55"/>
<path class="st11" d="M324,397"/>
<path class="st4" d="M333,397"/>
<line class="st5" x1="387" y1="289" x2="387" y2="289"/>
<path class="st1" d="M162,460"/>
<path class="st12" d="M207,460"/>
<path class="st5" d="M388.7,346.9c4.8-4.8,9.6-9.6,14.4-14.4c-2.4,4.8-4.8,9.6-7.2,14.4c-7.2,16.8-14.4,33.6-21.6,50.4
	C379.1,380.5,383.9,363.7,388.7,346.9z"/>
<path class="st3" d="M316.7,433.3"/>
<path class="st3" d="M410.3,476.5"/>
<path class="st3" d="M316.7,433.3"/>
<path class="st6" d="M138.2,282.2c-2.9,3.4-5.8,6.9-8.6,10.3c2.4,4.8,4.8,9.6,7.2,14.4C137.2,298.6,137.7,290.4,138.2,282.2z"/>
<path class="st5" d="M115.1,253.3c-2.4,2.4-4.8,4.8-7.2,7.2c0,7.2,0,14.4,0,21.6c-2.4-4.8-4.8-9.6-7.2-14.4
	c2.4-7.2,4.8-14.4,7.2-21.6c2.4,0,4.8,0,7.2,0C115.1,248.5,115.1,250.9,115.1,253.3z"/>
<path class="st5" d="M129.7,321.2c0.1,2.5,0.2,5,0.4,7.4c2.2,1.9,4.5,3.7,6.7,5.6C134.4,329.8,132.1,325.5,129.7,321.2z"/>
<path class="st5" d="M467.9,426.1"/>
<line class="st13" x1="295.1" y1="390.1" x2="295.1" y2="390.1"/>
<path class="st8" d="M444.4,159.6c-0.1-8.2-0.3-16.3-0.4-24.5c-6.4-8-12.8-15.9-19.2-23.9c-7.5-3.3-15-6.6-22.5-9.8"/>
</svg>
